<?xml version="1.0" standalone="no"?>
<!DOCTYPE svg PUBLIC "-//W3C//DTD SVG 20010904//EN"
 "http://www.w3.org/TR/2001/REC-SVG-20010904/DTD/svg10.dtd">
<svg version="1.0" xmlns="http://www.w3.org/2000/svg"
 width="1000.000000pt" height="1000.000000pt" viewBox="0 0 1000.000000 1000.000000"
 preserveAspectRatio="xMidYMid meet">

<g transform="translate(0.000000,1000.000000) scale(0.100000,-0.100000)"
fill="#000000" stroke="none">
<path d="M1065 8735 c-184 -28 -362 -99 -521 -205 -101 -68 -256 -223 -324
-324 -109 -163 -176 -334 -205 -526 -22 -143 -22 -5217 0 -5360 21 -135 49
-230 104 -346 68 -143 140 -245 250 -355 195 -195 427 -312 701 -354 143 -22
7717 -22 7860 0 144 22 233 50 365 114 265 130 457 325 586 595 55 116 83 211
104 346 22 143 22 5217 0 5360 -21 135 -49 230 -104 346 -92 192 -223 354
-386 476 -95 71 -291 169 -395 198 -191 53 35 50 -4110 49 -3036 -1 -3862 -4
-3925 -14z m7819 -954 c63 -31 116 -84 147 -147 24 -48 24 -54 24 -311 l0
-261 -1695 -1392 c-932 -766 -1720 -1409 -1750 -1430 -372 -253 -894 -244
-1250 23 -30 23 -559 455 -1175 961 -616 505 -1373 1126 -1682 1380 l-563 461
0 246 c0 271 4 294 61 374 34 48 89 89 148 110 30 11 689 13 3861 12 l3825 -2
49 -24z m-6504 -3110 c740 -608 1381 -1131 1425 -1164 526 -391 1238 -494
1874 -272 181 63 369 162 519 274 38 27 696 565 1463 1195 l1394 1145 3 -1697
c2 -1240 0 -1708 -8 -1737 -27 -95 -107 -178 -203 -211 -36 -12 -567 -14
-3862 -12 l-3820 3 -47 23 c-60 30 -120 90 -150 150 l-23 47 -3 1719 -2 1719
47 -39 c27 -21 653 -536 1393 -1143z"/>
</g>
</svg>
