<?xml version="1.0" standalone="no"?>
<!DOCTYPE svg PUBLIC "-//W3C//DTD SVG 20010904//EN"
 "http://www.w3.org/TR/2001/REC-SVG-20010904/DTD/svg10.dtd">
<svg version="1.0" xmlns="http://www.w3.org/2000/svg"
 width="1000.000000pt" height="1000.000000pt" viewBox="0 0 1000.000000 1000.000000"
 preserveAspectRatio="xMidYMid meet">

<g transform="translate(0.000000,1000.000000) scale(0.100000,-0.100000)"
fill="#000000" stroke="none">
<path d="M4447 9963 c-13 -79 -51 -105 -237 -158 -147 -42 -170 -54 -212 -106
-19 -24 -58 -54 -93 -71 -79 -40 -120 -72 -146 -115 -12 -19 -46 -52 -76 -74
-34 -25 -71 -66 -98 -108 -24 -37 -68 -88 -97 -113 -54 -46 -68 -70 -108 -179
-11 -31 -44 -88 -74 -127 -79 -104 -92 -153 -139 -527 -20 -162 -21 -226 -26
-1420 -6 -1185 -7 -1251 -24 -1277 -33 -48 -112 -74 -297 -98 -100 -13 -168
-42 -230 -98 -25 -22 -74 -52 -110 -67 -106 -42 -166 -91 -288 -236 -160 -191
-171 -206 -187 -268 -8 -31 -40 -131 -70 -222 -30 -91 -59 -196 -65 -235 -7
-47 -10 -578 -8 -1694 l3 -1625 62 -186 c34 -103 65 -204 69 -225 12 -67 34
-106 93 -168 32 -34 68 -77 81 -96 32 -50 218 -228 260 -250 19 -9 62 -25 95
-35 75 -21 129 -72 147 -138 l12 -47 2317 0 2317 0 7 38 c11 59 41 98 97 126
29 14 59 26 67 26 61 1 266 170 339 280 20 30 56 73 80 95 57 51 73 85 110
225 17 63 47 161 66 217 19 56 40 130 46 165 13 85 14 3186 0 3281 -6 38 -32
134 -60 215 -27 81 -54 172 -61 202 -17 80 -46 135 -104 199 -28 31 -66 76
-85 101 -114 149 -183 207 -304 256 -37 14 -88 45 -114 69 -77 69 -97 76 -314
110 -111 17 -179 44 -205 83 -17 26 -18 92 -24 1267 -5 1186 -6 1248 -27 1423
-41 349 -62 431 -135 525 -43 55 -71 110 -102 202 -13 37 -34 66 -81 110 -35
33 -81 88 -103 122 -22 34 -59 76 -83 93 -24 17 -69 59 -100 94 -38 42 -78 74
-123 97 -41 21 -80 51 -102 77 -44 53 -60 61 -212 106 -68 20 -141 46 -163 57
-44 22 -78 71 -78 112 l0 27 -549 0 -548 0 -6 -37z m848 -610 c33 -11 88 -38
123 -60 34 -23 102 -55 150 -72 133 -47 171 -70 221 -134 27 -34 71 -74 107
-96 57 -36 64 -45 103 -126 23 -49 65 -116 93 -149 57 -68 81 -117 97 -197 34
-175 36 -252 36 -1529 0 -1189 -1 -1267 -18 -1300 -9 -20 -32 -45 -50 -55 -31
-20 -58 -20 -1157 -20 -1099 0 -1126 0 -1157 20 -18 10 -41 35 -50 55 -17 33
-18 111 -18 1305 0 1311 1 1366 41 1543 18 79 40 123 100 192 26 30 64 92 85
137 36 77 42 85 106 126 45 29 82 63 108 100 47 65 45 64 197 121 65 24 146
62 180 84 59 38 131 65 203 76 17 2 122 3 235 2 173 -3 214 -6 265 -23z"/>
</g>
</svg>
