<?xml version="1.0" standalone="no"?>
<!DOCTYPE svg PUBLIC "-//W3C//DTD SVG 20010904//EN"
 "http://www.w3.org/TR/2001/REC-SVG-20010904/DTD/svg10.dtd">
<svg version="1.0" xmlns="http://www.w3.org/2000/svg"
 width="1000.000000pt" height="800.000000pt" viewBox="0 0 1000.000000 800.000000"
 preserveAspectRatio="xMidYMid meet">

<g transform="translate(0.000000,800.000000) scale(0.100000,-0.100000)"
fill="#000000" stroke="none">
<path d="M2060 7986 c-419 -76 -743 -314 -928 -681 -91 -180 -127 -338 -127
-555 0 -268 63 -477 213 -705 59 -90 237 -268 327 -327 228 -150 437 -213 705
-213 268 0 477 63 705 213 89 59 267 236 327 327 149 227 213 436 213 705 0
111 -5 179 -18 240 -55 258 -162 456 -346 641 -183 182 -378 289 -631 344
-102 22 -343 28 -440 11z"/>
<path d="M7810 7986 c-419 -76 -743 -314 -928 -681 -91 -180 -127 -338 -127
-555 0 -268 63 -477 213 -705 59 -90 237 -268 327 -327 228 -150 437 -213 705
-213 268 0 477 63 705 213 89 59 267 236 327 327 149 227 213 436 213 705 0
111 -5 179 -18 240 -55 258 -162 456 -346 641 -183 182 -378 289 -631 344
-102 22 -343 28 -440 11z"/>
<path d="M4855 5994 c-229 -33 -374 -77 -544 -164 -412 -213 -697 -598 -788
-1065 -24 -125 -24 -405 0 -530 60 -306 208 -587 420 -797 213 -211 488 -355
792 -415 125 -24 405 -24 530 0 148 29 279 74 413 142 419 213 707 599 799
1070 24 125 24 405 0 530 -60 304 -207 585 -417 795 -205 205 -482 353 -769
411 -92 19 -366 33 -436 23z"/>
<path d="M1505 4993 c-87 -8 -262 -46 -361 -78 -271 -89 -543 -268 -725 -479
-264 -304 -410 -674 -413 -1046 -1 -140 0 -147 26 -197 40 -76 79 -115 150
-154 l63 -34 1714 -3 1714 -2 -99 102 c-106 109 -211 244 -286 368 -214 354
-313 777 -279 1182 8 84 14 164 15 177 1 22 -9 28 -104 64 -120 45 -274 82
-405 97 -82 9 -913 12 -1010 3z"/>
<path d="M7470 4989 c-141 -16 -339 -69 -455 -120 -43 -19 -47 -23 -42 -48 16
-80 29 -300 23 -406 -27 -511 -216 -948 -570 -1313 l-99 -102 1714 2 1714 3
50 25 c64 31 134 101 165 165 23 46 25 61 24 190 -1 300 -97 604 -273 867
-250 373 -611 618 -1055 715 -121 26 -123 26 -621 29 -275 1 -534 -2 -575 -7z"/>
<path d="M3861 2489 c-170 -18 -380 -70 -546 -136 -482 -189 -899 -583 -1121
-1059 -119 -254 -194 -586 -194 -853 0 -211 108 -362 301 -422 59 -18 143 -19
2697 -19 2168 0 2646 3 2687 14 152 40 255 144 301 301 14 50 16 83 11 195
-21 447 -174 852 -454 1207 -79 100 -264 281 -370 361 -302 228 -672 373
-1052 412 -126 12 -2137 11 -2260 -1z"/>
</g>
</svg>
