<?xml version="1.0" standalone="no"?>
<!DOCTYPE svg PUBLIC "-//W3C//DTD SVG 20010904//EN"
 "http://www.w3.org/TR/2001/REC-SVG-20010904/DTD/svg10.dtd">
<svg version="1.0" xmlns="http://www.w3.org/2000/svg"
 width="875.000000pt" height="1000.000000pt" viewBox="0 0 875.000000 1000.000000"
 preserveAspectRatio="xMidYMid meet">

<g transform="translate(0.000000,1000.000000) scale(0.100000,-0.100000)"
fill="#000000" stroke="none">
<path d="M4175 9994 c-353 -37 -635 -118 -930 -267 -239 -121 -431 -259 -624
-450 -382 -377 -612 -819 -713 -1370 -20 -108 -22 -155 -22 -407 0 -252 2
-299 22 -407 132 -720 511 -1297 1112 -1693 211 -139 534 -275 790 -334 505
-116 1016 -76 1498 115 198 79 462 233 637 374 99 79 284 263 370 370 269 331
445 722 527 1168 20 108 22 155 22 407 0 252 -2 299 -22 407 -48 261 -118 477
-227 698 -126 256 -280 469 -488 674 -382 378 -854 613 -1397 696 -101 16
-467 28 -555 19z m513 -962 c472 -103 860 -398 1076 -821 230 -450 230 -972 0
-1422 -219 -429 -618 -729 -1099 -826 -127 -25 -453 -25 -580 0 -480 97 -880
397 -1099 826 -230 450 -230 972 0 1422 127 249 308 448 547 604 192 124 399
199 662 239 17 2 113 3 215 1 138 -3 209 -9 278 -23z"/>
<path d="M3160 4049 c-1177 -111 -2224 -817 -2766 -1864 -246 -475 -372 -955
-390 -1490 -7 -193 3 -259 58 -374 42 -89 167 -214 259 -259 139 -67 -203 -62
4054 -62 4252 0 3914 -5 4054 62 90 42 214 167 259 259 55 113 65 180 58 374
-9 265 -40 489 -102 738 -324 1289 -1377 2296 -2674 2557 -330 67 -260 64
-1545 66 -643 1 -1213 -2 -1265 -7z m2375 -939 c586 -58 1153 -337 1570 -771
345 -361 576 -812 665 -1302 l17 -97 -3412 0 -3412 0 17 97 c71 392 229 752
470 1072 452 600 1153 975 1890 1010 228 10 2073 3 2195 -9z"/>
</g>
</svg>
